<svg width="162" height="162" viewBox="0 0 162 162" fill="none" xmlns="http://www.w3.org/2000/svg">
<g clip-path="url(#clip0_3_94)">
<path d="M137.14 28.0502C126.815 23.3125 115.742 19.822 104.165 17.8228C103.954 17.7843 103.744 17.8807 103.635 18.0735C102.211 20.6062 100.634 23.9103 99.5294 26.5074C87.0777 24.6432 74.69 24.6432 62.4937 26.5074C61.3889 23.8526 59.7543 20.6062 58.3239 18.0735C58.2153 17.8871 58.0047 17.7907 57.7938 17.8228C46.2234 19.8156 35.151 23.3062 24.8193 28.0502C24.7299 28.0888 24.6532 28.1531 24.6023 28.2367C3.60039 59.6131 -2.15291 90.2183 0.669466 120.444C0.682236 120.592 0.765247 120.733 0.880187 120.823C14.7367 130.999 28.159 137.177 41.3321 141.272C41.543 141.336 41.7663 141.259 41.9005 141.085C45.0166 136.83 47.7943 132.343 50.176 127.624C50.3165 127.348 50.1824 127.02 49.8951 126.911C45.4891 125.24 41.2938 123.202 37.2582 120.888C36.939 120.701 36.9134 120.245 37.2071 120.026C38.0563 119.39 38.9058 118.728 39.7167 118.059C39.8634 117.937 40.0678 117.911 40.2403 117.988C66.7527 130.093 95.4554 130.093 121.655 117.988C121.827 117.905 122.032 117.931 122.185 118.053C122.996 118.721 123.845 119.39 124.701 120.026C124.995 120.245 124.975 120.701 124.656 120.888C120.621 123.247 116.425 125.24 112.013 126.904C111.726 127.014 111.598 127.348 111.738 127.624C114.171 132.336 116.949 136.823 120.008 141.079C120.135 141.259 120.365 141.336 120.576 141.272C133.813 137.177 147.235 130.999 161.092 120.823C161.213 120.733 161.29 120.598 161.302 120.45C164.68 85.5062 155.645 55.1519 137.35 28.243C137.306 28.1531 137.229 28.0888 137.14 28.0502ZM54.1352 102.04C46.1531 102.04 39.5761 94.7116 39.5761 85.712C39.5761 76.7123 46.0256 69.3842 54.1352 69.3842C62.3084 69.3842 68.8217 76.7766 68.6939 85.712C68.6939 94.7116 62.2445 102.04 54.1352 102.04ZM107.965 102.04C99.9827 102.04 93.4058 94.7116 93.4058 85.712C93.4058 76.7123 99.855 69.3842 107.965 69.3842C116.138 69.3842 122.651 76.7766 122.524 85.712C122.524 94.7116 116.138 102.04 107.965 102.04Z" fill="#5865F2"/>
</g>
<defs>
<clipPath id="clip0_3_94">
<rect width="162" height="162" fill="white"/>
</clipPath>
</defs>
</svg>
