<svg width="144" height="144" viewBox="0 0 144 144" fill="none" xmlns="http://www.w3.org/2000/svg">
<path fill-rule="evenodd" clip-rule="evenodd" d="M35.0271 72.0001C35.0271 51.5803 51.5803 35.0271 72.0002 35.0271C92.4197 35.0271 108.973 51.5803 108.973 72.0001C108.973 92.4197 92.4197 108.973 72.0002 108.973C51.5803 108.973 35.0271 92.4197 35.0271 72.0001ZM72.0001 96C58.7451 96 48 85.2549 48 72.0001C48 58.7451 58.7451 48 72.0001 48C85.2549 48 96 58.7451 96 72.0001C96 85.2549 85.2549 96 72.0001 96Z" fill="url(#paint0_linear_3_92)"/>
<path fill-rule="evenodd" clip-rule="evenodd" d="M35.0271 72.0001C35.0271 51.5803 51.5803 35.0271 72.0002 35.0271C92.4197 35.0271 108.973 51.5803 108.973 72.0001C108.973 92.4197 92.4197 108.973 72.0002 108.973C51.5803 108.973 35.0271 92.4197 35.0271 72.0001ZM72.0001 96C58.7451 96 48 85.2549 48 72.0001C48 58.7451 58.7451 48 72.0001 48C85.2549 48 96 58.7451 96 72.0001C96 85.2549 85.2549 96 72.0001 96Z" fill="url(#paint1_radial_3_92)"/>
<path d="M110.434 42.2062C115.205 42.2062 119.074 38.3381 119.074 33.5663C119.074 28.7945 115.205 24.9262 110.434 24.9262C105.662 24.9262 101.794 28.7945 101.794 33.5663C101.794 38.3381 105.662 42.2062 110.434 42.2062Z" fill="url(#paint2_linear_3_92)"/>
<path d="M110.434 42.2062C115.205 42.2062 119.074 38.3381 119.074 33.5663C119.074 28.7945 115.205 24.9262 110.434 24.9262C105.662 24.9262 101.794 28.7945 101.794 33.5663C101.794 38.3381 105.662 42.2062 110.434 42.2062Z" fill="url(#paint3_radial_3_92)"/>
<path fill-rule="evenodd" clip-rule="evenodd" d="M72.0001 0C52.446 0 49.9941 0.0828833 42.3145 0.43328C34.6509 0.782818 29.417 2.00006 24.8373 3.78005C20.1026 5.61977 16.0874 8.08169 12.0844 12.0844C8.08169 16.0874 5.61977 20.1026 3.78005 24.8373C2.00006 29.417 0.782818 34.6509 0.43328 42.3145C0.0828833 49.9941 0 52.446 0 72.0001C0 91.554 0.0828833 94.0059 0.43328 101.686C0.782818 109.349 2.00006 114.583 3.78005 119.163C5.61977 123.897 8.08169 127.913 12.0844 131.916C16.0874 135.918 20.1026 138.38 24.8373 140.22C29.417 142 34.6509 143.217 42.3145 143.567C49.9941 143.917 52.446 144 72.0001 144C91.554 144 94.0059 143.917 101.686 143.567C109.349 143.217 114.583 142 119.163 140.22C123.897 138.38 127.913 135.918 131.916 131.916C135.918 127.913 138.38 123.897 140.22 119.163C142 114.583 143.217 109.349 143.567 101.686C143.917 94.0059 144 91.554 144 72.0001C144 52.446 143.917 49.9941 143.567 42.3145C143.217 34.6509 142 29.417 140.22 24.8373C138.38 20.1026 135.918 16.0874 131.916 12.0844C127.913 8.08169 123.897 5.61977 119.163 3.78005C114.583 2.00006 109.349 0.782818 101.686 0.43328C94.0059 0.0828833 91.554 0 72.0001 0ZM72.0002 12.9729C91.2248 12.9729 93.5021 13.0464 101.094 13.3928C108.114 13.7129 111.926 14.8858 114.464 15.8719C117.824 17.178 120.223 18.7382 122.742 21.2578C125.262 23.7772 126.822 26.1757 128.128 29.5365C129.114 32.0735 130.287 35.8859 130.607 42.9058C130.954 50.4979 131.027 52.7752 131.027 72.0001C131.027 91.2248 130.954 93.5021 130.607 101.094C130.287 108.114 129.114 111.926 128.128 114.464C126.822 117.824 125.262 120.223 122.742 122.742C120.223 125.262 117.824 126.822 114.464 128.128C111.926 129.114 108.114 130.287 101.094 130.607C93.5032 130.954 91.2262 131.027 72.0002 131.027C52.7738 131.027 50.4971 130.954 42.9058 130.607C35.8859 130.287 32.0736 129.114 29.5365 128.128C26.1757 126.822 23.7772 125.262 21.2579 122.742C18.7385 120.223 17.178 117.824 15.8719 114.464C14.8859 111.926 13.7129 108.114 13.3928 101.094C13.0464 93.5021 12.973 91.2248 12.973 72.0001C12.973 52.7752 13.0464 50.4979 13.3928 42.9058C13.7129 35.8859 14.8859 32.0735 15.8719 29.5365C17.178 26.1757 18.7382 23.7772 21.2579 21.2578C23.7772 18.7382 26.1757 17.178 29.5365 15.8719C32.0736 14.8858 35.8859 13.7129 42.9058 13.3928C50.4979 13.0464 52.7752 12.9729 72.0002 12.9729Z" fill="url(#paint4_linear_3_92)"/>
<path fill-rule="evenodd" clip-rule="evenodd" d="M72.0001 0C52.446 0 49.9941 0.0828833 42.3145 0.43328C34.6509 0.782818 29.417 2.00006 24.8373 3.78005C20.1026 5.61977 16.0874 8.08169 12.0844 12.0844C8.08169 16.0874 5.61977 20.1026 3.78005 24.8373C2.00006 29.417 0.782818 34.6509 0.43328 42.3145C0.0828833 49.9941 0 52.446 0 72.0001C0 91.554 0.0828833 94.0059 0.43328 101.686C0.782818 109.349 2.00006 114.583 3.78005 119.163C5.61977 123.897 8.08169 127.913 12.0844 131.916C16.0874 135.918 20.1026 138.38 24.8373 140.22C29.417 142 34.6509 143.217 42.3145 143.567C49.9941 143.917 52.446 144 72.0001 144C91.554 144 94.0059 143.917 101.686 143.567C109.349 143.217 114.583 142 119.163 140.22C123.897 138.38 127.913 135.918 131.916 131.916C135.918 127.913 138.38 123.897 140.22 119.163C142 114.583 143.217 109.349 143.567 101.686C143.917 94.0059 144 91.554 144 72.0001C144 52.446 143.917 49.9941 143.567 42.3145C143.217 34.6509 142 29.417 140.22 24.8373C138.38 20.1026 135.918 16.0874 131.916 12.0844C127.913 8.08169 123.897 5.61977 119.163 3.78005C114.583 2.00006 109.349 0.782818 101.686 0.43328C94.0059 0.0828833 91.554 0 72.0001 0ZM72.0002 12.9729C91.2248 12.9729 93.5021 13.0464 101.094 13.3928C108.114 13.7129 111.926 14.8858 114.464 15.8719C117.824 17.178 120.223 18.7382 122.742 21.2578C125.262 23.7772 126.822 26.1757 128.128 29.5365C129.114 32.0735 130.287 35.8859 130.607 42.9058C130.954 50.4979 131.027 52.7752 131.027 72.0001C131.027 91.2248 130.954 93.5021 130.607 101.094C130.287 108.114 129.114 111.926 128.128 114.464C126.822 117.824 125.262 120.223 122.742 122.742C120.223 125.262 117.824 126.822 114.464 128.128C111.926 129.114 108.114 130.287 101.094 130.607C93.5032 130.954 91.2262 131.027 72.0002 131.027C52.7738 131.027 50.4971 130.954 42.9058 130.607C35.8859 130.287 32.0736 129.114 29.5365 128.128C26.1757 126.822 23.7772 125.262 21.2579 122.742C18.7385 120.223 17.178 117.824 15.8719 114.464C14.8859 111.926 13.7129 108.114 13.3928 101.094C13.0464 93.5021 12.973 91.2248 12.973 72.0001C12.973 52.7752 13.0464 50.4979 13.3928 42.9058C13.7129 35.8859 14.8859 32.0735 15.8719 29.5365C17.178 26.1757 18.7382 23.7772 21.2579 21.2578C23.7772 18.7382 26.1757 17.178 29.5365 15.8719C32.0736 14.8858 35.8859 13.7129 42.9058 13.3928C50.4979 13.0464 52.7752 12.9729 72.0002 12.9729Z" fill="url(#paint5_radial_3_92)"/>
<defs>
<linearGradient id="paint0_linear_3_92" x1="8.40194" y1="7.5705" x2="53.8039" y2="183.191" gradientUnits="userSpaceOnUse">
<stop stop-color="#4E60D3"/>
<stop offset="0.142763" stop-color="#913BAF"/>
<stop offset="0.761458" stop-color="#D52D88"/>
<stop offset="1" stop-color="#F26D4F"/>
</linearGradient>
<radialGradient id="paint1_radial_3_92" cx="0" cy="0" r="1" gradientUnits="userSpaceOnUse" gradientTransform="translate(43.595 144) rotate(32.1601) scale(134.488 96.7869)">
<stop stop-color="#FED276"/>
<stop offset="0.17024" stop-color="#FDBD61" stop-opacity="0.975006"/>
<stop offset="0.454081" stop-color="#F6804D"/>
<stop offset="1" stop-color="#E83D5C" stop-opacity="0.01"/>
</radialGradient>
<linearGradient id="paint2_linear_3_92" x1="8.40194" y1="7.5705" x2="53.8039" y2="183.191" gradientUnits="userSpaceOnUse">
<stop stop-color="#4E60D3"/>
<stop offset="0.142763" stop-color="#913BAF"/>
<stop offset="0.761458" stop-color="#D52D88"/>
<stop offset="1" stop-color="#F26D4F"/>
</linearGradient>
<radialGradient id="paint3_radial_3_92" cx="0" cy="0" r="1" gradientUnits="userSpaceOnUse" gradientTransform="translate(43.595 144) rotate(32.1601) scale(134.488 96.7869)">
<stop stop-color="#FED276"/>
<stop offset="0.17024" stop-color="#FDBD61" stop-opacity="0.975006"/>
<stop offset="0.454081" stop-color="#F6804D"/>
<stop offset="1" stop-color="#E83D5C" stop-opacity="0.01"/>
</radialGradient>
<linearGradient id="paint4_linear_3_92" x1="8.40194" y1="7.5705" x2="53.8039" y2="183.191" gradientUnits="userSpaceOnUse">
<stop stop-color="#4E60D3"/>
<stop offset="0.142763" stop-color="#913BAF"/>
<stop offset="0.761458" stop-color="#D52D88"/>
<stop offset="1" stop-color="#F26D4F"/>
</linearGradient>
<radialGradient id="paint5_radial_3_92" cx="0" cy="0" r="1" gradientUnits="userSpaceOnUse" gradientTransform="translate(43.595 144) rotate(32.1601) scale(134.488 96.7869)">
<stop stop-color="#FED276"/>
<stop offset="0.17024" stop-color="#FDBD61" stop-opacity="0.975006"/>
<stop offset="0.454081" stop-color="#F6804D"/>
<stop offset="1" stop-color="#E83D5C" stop-opacity="0.01"/>
</radialGradient>
</defs>
</svg>
